<svg xmlns="http://www.w3.org/2000/svg" viewBox="0 0 217.23 189.85"><defs><style>.cls-1,.cls-2{fill:#f7941d;}.cls-2{font-size:28px;font-family:Cambria-Bold, Cambria;font-weight:700;}.cls-3{letter-spacing:-0.02em;}</style></defs><g id="Layer_1" data-name="Layer 1"><path class="cls-1" d="M205.38,59.81,140.79,92.92a2.14,2.14,0,0,0,0,3L203.87,130a2.14,2.14,0,0,0,3,0L273,95.94a2.12,2.12,0,0,0,0-3L208.4,59.81A2.14,2.14,0,0,0,205.38,59.81Z" transform="translate(-97.15 -29.29)"/></g><g id="Layer_2" data-name="Layer 2"><path class="cls-1" d="M165.28,191a5.63,5.63,0,0,0,5.56,6.58h80.83v6H162.11v-90.2L203.87,136a2.12,2.12,0,0,0,3,0l44.78-23.09v65.94a7.48,7.48,0,0,1-7.48,7.48H171A6,6,0,0,0,165.28,191Z" transform="translate(-97.15 -29.29)"/><polygon class="cls-1" points="148.81 165.08 137.23 165.08 137.23 189.85 143.02 183.43 148.81 189.85 148.81 165.08"/><text x="-97.15" y="-29.29"/></g><g id="Layer_3" data-name="Layer 3"><text class="cls-2" transform="translate(0 23.33)">G<tspan class="cls-3" x="18.1" y="0">r</tspan><tspan x="30.54" y="0">adeIt Platform</tspan></text></g></svg>